# xmcd
#
# Track frame offsets:
#	150
#	13944
#	27968
#	39781
#	54449
#	69897
#	83664
#	101219
#	114344
#	132663
#	143904
#	158296
#
# Disc length: 2293 seconds
#
# Revision: 1
# Processed by: cddbd v1.4PL0 Copyright (c) Steve Scherf et al.
# Submitted via: EasyCDDAExtractor 5.1.0
#
DISCID=9108f30c
DTITLE=Jason Allen - Something I Dreamed
DYEAR=2001
DGENRE=Country
TTITLE0=All I've Got To Say
TTITLE1=Next In Line
TTITLE2=Body And Fender Man
TTITLE3=Love Me
TTITLE4=Being Loved Like This
TTITLE5=Lucky Arms
TTITLE6=Love Don't Get Much Colder
TTITLE7=Something I Dreamed
TTITLE8=It's A Doggone Pity
TTITLE9=I Can See Texas From Here
TTITLE10=I'll Share My World With You
TTITLE11=Cryin' For Their Mamas
EXTD=
EXTT0=
EXTT1=
EXTT2=
EXTT3=
EXTT4=
EXTT5=
EXTT6=
EXTT7=
EXTT8=
EXTT9=
EXTT10=
EXTT11=
PLAYORDER=
